<svg width="14" height="14" viewBox="0 0 14 14" fill="none" xmlns="http://www.w3.org/2000/svg">
<path fill-rule="evenodd" clip-rule="evenodd" d="M8.636 1.5C8.636 1.36739 8.58332 1.24021 8.48955 1.14645C8.39579 1.05268 8.26861 1 8.136 1H1.5C1.10218 1 0.720644 1.15804 0.43934 1.43934C0.158035 1.72064 0 2.10218 0 2.5V12.5C0 12.8978 0.158035 13.2794 0.43934 13.5607C0.720644 13.842 1.10218 14 1.5 14H11.5C11.8978 14 12.2794 13.842 12.5607 13.5607C12.842 13.2794 13 12.8978 13 12.5V5.864C13 5.73139 12.9473 5.60421 12.8536 5.51045C12.7598 5.41668 12.6326 5.364 12.5 5.364C12.3674 5.364 12.2402 5.41668 12.1464 5.51045C12.0527 5.60421 12 5.73139 12 5.864V12.5C12 12.6326 11.9473 12.7598 11.8536 12.8536C11.7598 12.9473 11.6326 13 11.5 13H1.5C1.36739 13 1.24021 12.9473 1.14645 12.8536C1.05268 12.7598 1 12.6326 1 12.5V2.5C1 2.36739 1.05268 2.24021 1.14645 2.14645C1.24021 2.05268 1.36739 2 1.5 2H8.136C8.26861 2 8.39579 1.94732 8.48955 1.85355C8.58332 1.75979 8.636 1.63261 8.636 1.5Z" fill="#F8F8F8"/>
<path fill-rule="evenodd" clip-rule="evenodd" d="M4 9.4999C4 9.63251 4.05268 9.75968 4.14645 9.85345C4.24021 9.94722 4.36739 9.9999 4.5 9.9999H9.5C9.63261 9.9999 9.75979 9.94722 9.85355 9.85345C9.94732 9.75968 10 9.63251 10 9.4999C10 9.36729 9.94732 9.24011 9.85355 9.14635C9.75979 9.05258 9.63261 8.9999 9.5 8.9999H5.707L13.854 0.853899C13.9005 0.807411 13.9374 0.752222 13.9625 0.691483C13.9877 0.630743 14.0006 0.565643 14.0006 0.499899C14.0006 0.434155 13.9877 0.369055 13.9625 0.308316C13.9374 0.247576 13.9005 0.192387 13.854 0.145899C13.8075 0.0994113 13.7523 0.062535 13.6916 0.0373759C13.6308 0.0122168 13.5657 -0.000732422 13.5 -0.000732422C13.4343 -0.000732422 13.3692 0.0122168 13.3084 0.0373759C13.2477 0.062535 13.1925 0.0994113 13.146 0.145899L5 8.2929V4.4999C5 4.36729 4.94732 4.24011 4.85355 4.14635C4.75979 4.05258 4.63261 3.9999 4.5 3.9999C4.36739 3.9999 4.24021 4.05258 4.14645 4.14635C4.05268 4.24011 4 4.36729 4 4.4999V9.4999Z" fill="#F8F8F8"/>
</svg>
