<svg width="12" height="11" viewBox="0 0 12 11" fill="none" xmlns="http://www.w3.org/2000/svg">
<path fill-rule="evenodd" clip-rule="evenodd" d="M7.85447 5.4167C7.85447 5.30896 7.81167 5.20563 7.73548 5.12944C7.65929 5.05325 7.55596 5.01045 7.44822 5.01045H2.90322C2.42297 5.01045 2.20201 4.4129 2.56672 4.10045C2.60726 4.06574 2.64058 4.02338 2.66475 3.97579C2.68893 3.92821 2.70349 3.87632 2.70762 3.82311C2.71174 3.76989 2.70534 3.71639 2.68879 3.66564C2.67224 3.6149 2.64585 3.56791 2.61114 3.52737C2.57642 3.48682 2.53406 3.45351 2.48648 3.42933C2.43889 3.40516 2.38701 3.39059 2.33379 3.38647C2.28058 3.38234 2.22707 3.38874 2.17633 3.4053C2.12558 3.42185 2.0786 3.44824 2.03805 3.48295L0.142219 5.10795C0.0976208 5.14609 0.0618146 5.19344 0.0372637 5.24674C0.0127128 5.30003 0 5.35802 0 5.4167C0 5.47538 0.0127128 5.53337 0.0372637 5.58667C0.0618146 5.63996 0.0976208 5.68731 0.142219 5.72545L2.03805 7.35045C2.11994 7.42056 2.22632 7.45526 2.33379 7.44693C2.44127 7.4386 2.54103 7.38792 2.61114 7.30603C2.68124 7.22415 2.71595 7.11777 2.70762 7.01029C2.69929 6.90282 2.6486 6.80306 2.56672 6.73295C2.2021 6.42042 2.42312 5.82295 2.90335 5.82295H7.44822C7.55596 5.82295 7.65929 5.78015 7.73548 5.70396C7.81167 5.62778 7.85447 5.52444 7.85447 5.4167Z" fill="url(#paint0_linear_128_101)"/>
<path d="M4.19824 3.25C4.19824 3.63025 4.19824 3.82037 4.28978 3.95742C4.32921 4.01634 4.37982 4.06695 4.43874 4.10638C4.57578 4.19792 4.76591 4.19792 5.14616 4.19792H7.44824C7.77147 4.19792 8.08147 4.32632 8.31003 4.55488C8.53859 4.78344 8.66699 5.09343 8.66699 5.41667C8.66699 5.7399 8.53859 6.04989 8.31003 6.27845C8.08147 6.50701 7.77147 6.63542 7.44824 6.63542H5.14616C4.76591 6.63542 4.57578 6.63542 4.43874 6.72642C4.37977 6.766 4.32915 6.8168 4.28978 6.87592C4.19824 7.01296 4.19824 7.20308 4.19824 7.58333C4.19824 9.11517 4.19824 9.88163 4.67437 10.3572C5.14995 10.8333 5.91587 10.8333 7.4477 10.8333H7.98937C9.52228 10.8333 10.2877 10.8333 10.7638 10.3572C11.2399 9.88163 11.2399 9.11517 11.2399 7.58333V3.25C11.2399 1.71817 11.2399 0.951708 10.7638 0.476125C10.2877 -3.22859e-08 9.52174 0 7.98991 0H7.44824C5.91587 0 5.14995 -3.22859e-08 4.67437 0.476125C4.19824 0.951708 4.19824 1.71817 4.19824 3.25Z" fill="url(#paint1_linear_128_101)"/>
<defs>
<linearGradient id="paint0_linear_128_101" x1="8.17087" y1="6.35547" x2="4.81739" y2="1.28308" gradientUnits="userSpaceOnUse">
<stop stop-color="#0000FF"/>
<stop offset="1" stop-color="#FF00FF"/>
</linearGradient>
<linearGradient id="paint1_linear_128_101" x1="11.5236" y1="7.9198" x2="3.66998" y2="3.92572" gradientUnits="userSpaceOnUse">
<stop stop-color="#0000FF"/>
<stop offset="1" stop-color="#FF00FF"/>
</linearGradient>
</defs>
</svg>
