<svg width="20" height="20" viewBox="0 0 20 20" fill="none" xmlns="http://www.w3.org/2000/svg">
<path d="M19 17.5C19 17.1022 18.842 16.7206 18.5607 16.4393C18.2794 16.158 17.8978 16 17.5 16C17.1022 16 16.7206 16.158 16.4393 16.4393C16.158 16.7206 16 17.1022 16 17.5C16 17.8978 16.158 18.2794 16.4393 18.5607C16.7206 18.842 17.1022 19 17.5 19C17.8978 19 18.2794 18.842 18.5607 18.5607C18.842 18.2794 19 17.8978 19 17.5ZM11.5 17.5C11.5 17.1022 11.342 16.7206 11.0607 16.4393C10.7794 16.158 10.3978 16 10 16C9.60218 16 9.22064 16.158 8.93934 16.4393C8.65804 16.7206 8.5 17.1022 8.5 17.5C8.5 17.8978 8.65804 18.2794 8.93934 18.5607C9.22064 18.842 9.60218 19 10 19C10.3978 19 10.7794 18.842 11.0607 18.5607C11.342 18.2794 11.5 17.8978 11.5 17.5ZM4 17.5C4 17.1022 3.84196 16.7206 3.56066 16.4393C3.27936 16.158 2.89782 16 2.5 16C2.10218 16 1.72064 16.158 1.43934 16.4393C1.15804 16.7206 1 17.1022 1 17.5C1 17.8978 1.15804 18.2794 1.43934 18.5607C1.72064 18.842 2.10218 19 2.5 19C2.89782 19 3.27936 18.842 3.56066 18.5607C3.84196 18.2794 4 17.8978 4 17.5ZM19 10C19 9.60218 18.842 9.22064 18.5607 8.93934C18.2794 8.65804 17.8978 8.5 17.5 8.5C17.1022 8.5 16.7206 8.65804 16.4393 8.93934C16.158 9.22064 16 9.60218 16 10C16 10.3978 16.158 10.7794 16.4393 11.0607C16.7206 11.342 17.1022 11.5 17.5 11.5C17.8978 11.5 18.2794 11.342 18.5607 11.0607C18.842 10.7794 19 10.3978 19 10ZM19 2.5C19 2.10218 18.842 1.72064 18.5607 1.43934C18.2794 1.15804 17.8978 1 17.5 1C17.1022 1 16.7206 1.15804 16.4393 1.43934C16.158 1.72064 16 2.10218 16 2.5C16 2.89782 16.158 3.27936 16.4393 3.56066C16.7206 3.84196 17.1022 4 17.5 4C17.8978 4 18.2794 3.84196 18.5607 3.56066C18.842 3.27936 19 2.89782 19 2.5ZM11.5 10C11.5 9.60218 11.342 9.22064 11.0607 8.93934C10.7794 8.65804 10.3978 8.5 10 8.5C9.60218 8.5 9.22064 8.65804 8.93934 8.93934C8.65804 9.22064 8.5 9.60218 8.5 10C8.5 10.3978 8.65804 10.7794 8.93934 11.0607C9.22064 11.342 9.60218 11.5 10 11.5C10.3978 11.5 10.7794 11.342 11.0607 11.0607C11.342 10.7794 11.5 10.3978 11.5 10ZM11.5 2.5C11.5 2.10218 11.342 1.72064 11.0607 1.43934C10.7794 1.15804 10.3978 1 10 1C9.60218 1 9.22064 1.15804 8.93934 1.43934C8.65804 1.72064 8.5 2.10218 8.5 2.5C8.5 2.89782 8.65804 3.27936 8.93934 3.56066C9.22064 3.84196 9.60218 4 10 4C10.3978 4 10.7794 3.84196 11.0607 3.56066C11.342 3.27936 11.5 2.89782 11.5 2.5ZM4 10C4 9.60218 3.84196 9.22064 3.56066 8.93934C3.27936 8.65804 2.89782 8.5 2.5 8.5C2.10218 8.5 1.72064 8.65804 1.43934 8.93934C1.15804 9.22064 1 9.60218 1 10C1 10.3978 1.15804 10.7794 1.43934 11.0607C1.72064 11.342 2.10218 11.5 2.5 11.5C2.89782 11.5 3.27936 11.342 3.56066 11.0607C3.84196 10.7794 4 10.3978 4 10ZM4 2.5C4 2.10218 3.84196 1.72064 3.56066 1.43934C3.27936 1.15804 2.89782 1 2.5 1C2.10218 1 1.72064 1.15804 1.43934 1.43934C1.15804 1.72064 1 2.10218 1 2.5C1 2.89782 1.15804 3.27936 1.43934 3.56066C1.72064 3.84196 2.10218 4 2.5 4C2.89782 4 3.27936 3.84196 3.56066 3.56066C3.84196 3.27936 4 2.89782 4 2.5Z" fill="url(#paint0_linear_17_4673)" stroke="url(#paint1_linear_17_4673)" stroke-width="1.5" stroke-linecap="round" stroke-linejoin="round"/>
<defs>
<linearGradient id="paint0_linear_17_4673" x1="-1.5" y1="1" x2="23" y2="24" gradientUnits="userSpaceOnUse">
<stop stop-color="#FF00FF"/>
<stop offset="1" stop-color="#0000FF"/>
</linearGradient>
<linearGradient id="paint1_linear_17_4673" x1="-4.5" y1="1" x2="23" y2="28.5" gradientUnits="userSpaceOnUse">
<stop stop-color="#FF00FF"/>
<stop offset="1" stop-color="#0000FF"/>
</linearGradient>
</defs>
</svg>
