<svg width="12" height="13" viewBox="0 0 12 13" fill="none" xmlns="http://www.w3.org/2000/svg">
<path d="M6 0C4.75376 0 3.55856 0.504604 2.67734 1.4028C1.79611 2.301 1.30105 3.51923 1.30105 4.78947V7.20337C1.30114 7.30951 1.27701 7.41422 1.23056 7.50921L0.0779776 9.85811C0.0216751 9.97286 -0.0049105 10.1004 0.000745984 10.2286C0.00640246 10.3567 0.0441131 10.4813 0.110296 10.5904C0.17648 10.6996 0.268938 10.7897 0.37889 10.8521C0.488842 10.9146 0.612636 10.9474 0.738516 10.9474H11.2615C11.3874 10.9474 11.5112 10.9146 11.6211 10.8521C11.7311 10.7897 11.8235 10.6996 11.8897 10.5904C11.9559 10.4813 11.9936 10.3567 11.9993 10.2286C12.0049 10.1004 11.9783 9.97286 11.922 9.85811L10.7701 7.50921C10.7234 7.41427 10.6991 7.30956 10.699 7.20337V4.78947C10.699 3.51923 10.2039 2.301 9.32266 1.4028C8.44144 0.504604 7.24624 0 6 0ZM6 13C5.58339 13.0001 5.17699 12.8686 4.83677 12.6235V12.6235C4.33855 12.2646 4.74121 11.6316 5.35524 11.6316H6.64476C7.25879 11.6316 7.66145 12.2646 7.16323 12.6235V12.6235C6.82301 12.8686 6.41661 13.0001 6 13Z" fill="url(#paint0_linear_13_2384)" fill-opacity="0.6"/>
<defs>
<linearGradient id="paint0_linear_13_2384" x1="12.4834" y1="9.50376" x2="1.41276" y2="1.50827" gradientUnits="userSpaceOnUse">
<stop stop-color="#0000FF"/>
<stop offset="1" stop-color="#FF00FF"/>
</linearGradient>
</defs>
</svg>
