<svg width="20" height="17" viewBox="0 0 20 17" fill="none" xmlns="http://www.w3.org/2000/svg">
<path d="M18.1 8.5L19.5 9.91L12.97 16.5L9.5 13L10.9 11.59L12.97 13.67L18.1 8.5ZM7 13L10 16H0V14C0 11.79 3.58 10 8 10L9.89 10.11L7 13ZM8 0C9.06087 0 10.0783 0.421427 10.8284 1.17157C11.5786 1.92172 12 2.93913 12 4C12 5.06087 11.5786 6.07828 10.8284 6.82843C10.0783 7.57857 9.06087 8 8 8C6.93913 8 5.92172 7.57857 5.17157 6.82843C4.42143 6.07828 4 5.06087 4 4C4 2.93913 4.42143 1.92172 5.17157 1.17157C5.92172 0.421427 6.93913 0 8 0Z" fill="url(#paint0_linear_16_4092)"/>
<defs>
<linearGradient id="paint0_linear_16_4092" x1="20.2855" y1="12.0625" x2="5.52903" y2="-1.58237" gradientUnits="userSpaceOnUse">
<stop stop-color="#0000FF"/>
<stop offset="1" stop-color="#FF00FF"/>
</linearGradient>
</defs>
</svg>
