<svg width="12" height="13" viewBox="0 0 12 13" fill="none" xmlns="http://www.w3.org/2000/svg">
<path fill-rule="evenodd" clip-rule="evenodd" d="M7.12358 0.0959973C6.88991 -2.8233e-08 6.59307 0 6.00003 0C5.407 0 5.1108 -2.8233e-08 4.87649 0.0959973C4.56541 0.223706 4.31779 0.469734 4.18808 0.779979C4.12872 0.920817 4.10598 1.08565 4.09651 1.32502C4.0923 1.49845 4.04392 1.66793 3.95595 1.81746C3.86798 1.96698 3.74333 2.0916 3.59378 2.17952C3.44142 2.26421 3.27014 2.30908 3.09582 2.30996C2.92149 2.31085 2.74977 2.26772 2.59655 2.18457C2.38308 2.07215 2.22835 2.01026 2.07551 1.99005C1.74113 1.94615 1.40294 2.03603 1.13448 2.24015C0.933647 2.39299 0.78523 2.64814 0.489028 3.15781C0.192194 3.66748 0.0444086 3.922 0.0109358 4.17146C-0.0332735 4.50367 0.0576714 4.83966 0.263561 5.10554C0.357032 5.2268 0.489028 5.32849 0.693022 5.45606C0.994277 5.64363 1.18754 5.9632 1.18754 6.31562C1.18754 6.66803 0.994277 6.9876 0.693654 7.17454C0.489028 7.30275 0.357032 7.40443 0.262929 7.52569C0.1613 7.65702 0.0867038 7.80718 0.0434514 7.96751C0.000198873 8.12784 -0.0108526 8.29515 0.0109358 8.45977C0.0444086 8.7086 0.192194 8.96375 0.489028 9.47342C0.785862 9.98309 0.933647 10.2376 1.13448 10.3911C1.40227 10.5951 1.74078 10.6848 2.07551 10.6412C2.22835 10.621 2.38308 10.5591 2.59655 10.4467C2.74985 10.3634 2.92169 10.3202 3.09613 10.3211C3.27058 10.322 3.44197 10.3669 3.59442 10.4517C3.90136 10.6286 4.08325 10.9538 4.09651 11.3062C4.10598 11.5462 4.12872 11.7104 4.18808 11.8513C4.31692 12.1607 4.5645 12.407 4.87649 12.5352C5.11016 12.6312 5.407 12.6312 6.00003 12.6312C6.59307 12.6312 6.88991 12.6312 7.12358 12.5352C7.43466 12.4075 7.68228 12.1615 7.81199 11.8513C7.87135 11.7104 7.89409 11.5462 7.90356 11.3062C7.91619 10.9538 8.09871 10.6279 8.40628 10.4517C8.55865 10.367 8.72993 10.3222 8.90425 10.3213C9.07858 10.3204 9.2503 10.3635 9.40352 10.4467C9.61699 10.5591 9.77172 10.621 9.92456 10.6412C10.2593 10.6854 10.5978 10.5951 10.8656 10.3911C11.0664 10.2382 11.2148 9.98309 11.511 9.47342C11.8079 8.96375 11.9557 8.70924 11.9891 8.45977C12.0108 8.2951 11.9997 8.12777 11.9563 7.96744C11.913 7.80711 11.8382 7.65697 11.7365 7.52569C11.643 7.40443 11.511 7.30275 11.307 7.17517C11.0058 6.9876 10.8125 6.66803 10.8125 6.31562C10.8125 5.9632 11.0058 5.64364 11.3064 5.45669C11.511 5.32849 11.643 5.2268 11.7371 5.10554C11.8388 4.97422 11.9134 4.82405 11.9566 4.66372C11.9999 4.5034 12.0109 4.33609 11.9891 4.17146C11.9557 3.92263 11.8079 3.66748 11.511 3.15781C11.2142 2.64814 11.0664 2.39362 10.8656 2.24015C10.5971 2.03603 10.2589 1.94615 9.92456 1.99005C9.77172 2.01026 9.61699 2.07215 9.40352 2.18457C9.25022 2.26783 9.07838 2.31102 8.90394 2.31014C8.72949 2.30925 8.5581 2.26433 8.40565 2.17952C8.25622 2.09152 8.1317 1.96687 8.04384 1.81735C7.95599 1.66783 7.90771 1.49838 7.90356 1.32502C7.89409 1.08502 7.87135 0.920817 7.81199 0.779979C7.74779 0.626342 7.65395 0.48686 7.53583 0.3695C7.41771 0.25214 7.27763 0.159203 7.12358 0.0959973ZM6.00003 8.2103C7.05474 8.2103 7.90925 7.36211 7.90925 6.31562C7.90925 5.26912 7.05411 4.42093 6.00003 4.42093C4.94533 4.42093 4.09082 5.26912 4.09082 6.31562C4.09082 7.36211 4.94596 8.2103 6.00003 8.2103Z" fill="url(#paint0_linear_128_92)"/>
<defs>
<linearGradient id="paint0_linear_128_92" x1="12.4834" y1="9.23417" x2="1.63311" y2="1.16904" gradientUnits="userSpaceOnUse">
<stop stop-color="#0000FF"/>
<stop offset="1" stop-color="#FF00FF"/>
</linearGradient>
</defs>
</svg>
