<svg width="105" height="30" viewBox="0 0 105 30" fill="none" xmlns="http://www.w3.org/2000/svg">
<path fill-rule="evenodd" clip-rule="evenodd" d="M69.6706 6.70099V23.0646H74.209V6.70099H69.6706ZM70.214 3.92045C70.6969 4.3679 71.2758 4.59162 71.9505 4.59162C72.6252 4.59162 73.2005 4.3679 73.6763 3.92045C74.1593 3.46591 74.4007 2.92259 74.4007 2.29048C74.4007 1.66548 74.1593 1.12926 73.6763 0.681819C73.2005 0.227273 72.6252 0 71.9505 0C71.2758 0 70.6969 0.227273 70.214 0.681819C69.7381 1.12926 69.5002 1.66548 69.5002 2.29048C69.5002 2.92259 69.7381 3.46591 70.214 3.92045ZM86.6442 6.701V10.1101H83.3842V23.0646H78.8565V10.1101H76.5447V6.701H78.8565V5.51847C78.8565 4.33239 79.0874 3.34872 79.549 2.56747C80.0178 1.78622 80.657 1.20029 81.4666 0.809662C82.2763 0.419037 83.196 0.223724 84.2259 0.223724C84.9219 0.223724 85.5575 0.276992 86.1328 0.383527C86.7152 0.490061 87.1484 0.585941 87.4325 0.671169L86.6229 4.08026C86.4453 4.02344 86.2251 3.97017 85.9624 3.92046C85.7067 3.87074 85.4439 3.84588 85.174 3.84588C84.5064 3.84588 84.0412 4.00213 83.7784 4.31463C83.5156 4.62003 83.3842 5.04972 83.3842 5.6037V6.701H86.6442ZM92.2186 29.201C91.6433 29.201 91.1035 29.1548 90.5993 29.0625C90.1021 28.9773 89.6902 28.8672 89.3635 28.7322L90.3862 25.3445C90.9189 25.5078 91.3983 25.5966 91.8244 25.6108C92.2576 25.625 92.6305 25.5256 92.943 25.3125C93.2626 25.0994 93.5218 24.7372 93.7207 24.2258L93.987 23.5334L88.117 6.70099H92.8897L96.2775 18.718H96.448L99.8677 6.70099H104.672L98.3123 24.8331C98.0069 25.7138 97.5914 26.4808 97.0659 27.1342C96.5474 27.7947 95.8904 28.3026 95.095 28.6577C94.2995 29.0199 93.3407 29.201 92.2186 29.201ZM56.6282 23.331C55.3853 23.331 54.2596 23.0114 53.2511 22.3722C52.2497 21.7259 51.4542 20.7777 50.8647 19.5277C50.2823 18.2706 49.9911 16.7294 49.9911 14.9041C49.9911 13.0291 50.293 11.4702 50.8967 10.2273C51.5004 8.97728 52.3029 8.04334 53.3044 7.42544C54.3129 6.80044 55.4173 6.48794 56.6176 6.48794C57.5338 6.48794 58.2973 6.64419 58.9081 6.95669C59.526 7.26209 60.0231 7.64561 60.3995 8.10726C60.7831 8.5618 61.0742 9.00924 61.2731 9.44958H61.4116V1.24646H65.9393V23.0646H61.4649V20.4439H61.2731C61.06 20.8984 60.7582 21.3494 60.3676 21.7969C59.9841 22.2372 59.4833 22.603 58.8654 22.8942C58.2546 23.1854 57.5089 23.331 56.6282 23.331ZM58.0664 19.7195C58.798 19.7195 59.4159 19.5206 59.9201 19.1229C60.4315 18.7181 60.8221 18.1534 61.092 17.429C61.369 16.7046 61.5075 15.8558 61.5075 14.8828C61.5075 13.9098 61.3725 13.0646 61.1027 12.3473C60.8328 11.63 60.4421 11.076 59.9308 10.6854C59.4194 10.2948 58.798 10.0994 58.0664 10.0994C57.3207 10.0994 56.6921 10.3019 56.1808 10.7067C55.6694 11.1115 55.2823 11.6726 55.0196 12.3899C54.7568 13.1073 54.6254 13.9382 54.6254 14.8828C54.6254 15.8345 54.7568 16.6761 55.0196 17.4077C55.2894 18.1321 55.6765 18.7003 56.1808 19.1122C56.6921 19.5171 57.3207 19.7195 58.0664 19.7195ZM42.4299 6.70099V16.0973C42.437 16.8288 42.2914 17.4432 41.9931 17.9403C41.7019 18.4375 41.3184 18.8139 40.8425 19.0696C40.3667 19.3182 39.8553 19.4425 39.3084 19.4425C38.4491 19.4425 37.7637 19.1619 37.2523 18.6008C36.741 18.0398 36.4817 17.2763 36.4746 16.3104V6.70099H31.9363V17.12C31.9434 18.3984 32.1778 19.4957 32.6394 20.4119C33.1082 21.3281 33.758 22.0348 34.589 22.532C35.4199 23.0291 36.3823 23.2777 37.4761 23.2777C38.7047 23.2777 39.7452 22.9865 40.5975 22.4041C41.4569 21.8217 42.0712 21.0511 42.4405 20.0923H42.611V23.0646H46.9682V6.70099H42.4299ZM28.98 6.701V10.1101H25.9011V18.0362C25.9011 18.4553 25.965 18.782 26.0929 19.0163C26.2207 19.2436 26.3983 19.4034 26.6255 19.4957C26.8599 19.5881 27.1298 19.6342 27.4352 19.6342C27.6483 19.6342 27.8613 19.6165 28.0744 19.581C28.2875 19.5384 28.4508 19.5064 28.5645 19.4851L29.2782 22.8622C29.051 22.9332 28.7314 23.0149 28.3194 23.1073C27.9075 23.2067 27.4068 23.2671 26.8173 23.2884C25.7236 23.331 24.7648 23.1854 23.9409 22.8516C23.1241 22.5178 22.4885 21.9993 22.0339 21.2962C21.5794 20.593 21.3557 19.7053 21.3628 18.6328V10.1101H19.1255V6.701H21.3628V2.78055H25.9011V6.701H28.98ZM11.4418 5.51846C12.0881 5.99432 12.4538 6.66193 12.5391 7.5213H16.9602C16.9389 6.22159 16.5909 5.07812 15.9162 4.09091C15.2415 3.10369 14.2969 2.33309 13.0824 1.77912C11.875 1.22514 10.4616 0.948151 8.84233 0.948151C7.25142 0.948151 5.83097 1.22514 4.58097 1.77912C3.33097 2.33309 2.3473 3.10369 1.62997 4.09091C0.919744 5.07812 0.568182 6.23224 0.575284 7.55326C0.568182 9.16548 1.0973 10.4474 2.16264 11.3991C3.22798 12.3508 4.6804 13.0504 6.51989 13.4979L8.8956 14.0945C9.69105 14.2862 10.3622 14.4993 10.9091 14.7337C11.4631 14.968 11.8821 15.2521 12.1662 15.5859C12.4574 15.9197 12.603 16.3317 12.603 16.8217C12.603 17.3473 12.4432 17.8125 12.1236 18.2173C11.804 18.6222 11.353 18.9382 10.7706 19.1655C10.1953 19.3928 9.51705 19.5064 8.7358 19.5064C7.94034 19.5064 7.22656 19.3857 6.59446 19.1442C5.96946 18.8956 5.46875 18.5298 5.09233 18.0469C4.72301 17.5568 4.51349 16.946 4.46378 16.2145H0C0.0355114 17.7841 0.415483 19.1016 1.13991 20.1669C1.87145 21.2251 2.88707 22.0241 4.18679 22.5639C5.49361 23.1037 7.0277 23.3736 8.78906 23.3736C10.5646 23.3736 12.081 23.1072 13.3381 22.5746C14.6023 22.0348 15.5682 21.2784 16.2358 20.3054C16.9105 19.3253 17.2514 18.1676 17.2585 16.8324C17.2514 15.9233 17.0845 15.1172 16.7578 14.4141C16.4382 13.7109 15.9872 13.1001 15.4048 12.5817C14.8224 12.0632 14.1335 11.6264 13.3381 11.2713C12.5426 10.9162 11.669 10.6321 10.7173 10.419L8.7571 9.95028C8.28125 9.84375 7.83381 9.71591 7.41477 9.56676C6.99574 9.41051 6.62642 9.2294 6.30682 9.02344C5.98722 8.81037 5.73509 8.55824 5.55043 8.26704C5.37287 7.97585 5.29119 7.63494 5.3054 7.24432C5.3054 6.77557 5.44034 6.35653 5.71023 5.98721C5.98722 5.6179 6.38494 5.33025 6.90341 5.12429C7.42187 4.91122 8.05753 4.80468 8.81037 4.80468C9.91832 4.80468 10.7955 5.04261 11.4418 5.51846Z" fill="url(#paint0_linear_13_2326)"/>
<defs>
<linearGradient id="paint0_linear_13_2326" x1="108.889" y1="21.3476" x2="92.3155" y2="-25.134" gradientUnits="userSpaceOnUse">
<stop stop-color="#0000FF"/>
<stop offset="1" stop-color="#FF00FF"/>
</linearGradient>
</defs>
</svg>
