<svg width="25" height="24" viewBox="0 0 25 24" fill="none" xmlns="http://www.w3.org/2000/svg">
<path d="M11.9048 24C12.8571 24 13.8095 23.88 14.6429 23.64C14.1667 23.04 13.6905 22.32 13.4524 21.48C12.9762 21.6 12.381 21.6 11.9048 21.6C6.66667 21.6 2.38095 17.28 2.38095 12C2.38095 6.72 6.66667 2.4 11.9048 2.4C12.8571 2.4 13.6905 2.52 14.5238 2.76L16.4286 0.84C15 0.36 13.4524 0 11.9048 0C5.35714 0 0 5.4 0 12C0 18.6 5.35714 24 11.9048 24ZM5.35714 11.4L7.02381 9.72L10.7143 13.44L20.9524 3.12L22.619 4.8L10.7143 16.8L5.35714 11.4ZM20.2381 14.4L18.7381 17.7L15.4762 19.2L18.7381 20.712L20.2381 24L21.7262 20.712L25 19.2L21.7262 17.7L20.2381 14.4Z" fill="url(#paint0_linear_13_2362)"/>
<defs>
<linearGradient id="paint0_linear_13_2362" x1="5.23256" y1="1.04792e-06" x2="34.8863" y2="24.571" gradientUnits="userSpaceOnUse">
<stop stop-color="#FF00FF"/>
<stop offset="1" stop-color="#0000FF"/>
</linearGradient>
</defs>
</svg>
