<svg width="12" height="12" viewBox="0 0 12 12" fill="none" xmlns="http://www.w3.org/2000/svg">
<path fill-rule="evenodd" clip-rule="evenodd" d="M0.947847 5.69891C0.947847 8.46786 2.95543 10.3545 5.21043 10.7447C5.27177 10.7553 5.33042 10.7779 5.38302 10.8112C5.43562 10.8445 5.48115 10.8879 5.51701 10.9388C5.55287 10.9896 5.57835 11.0471 5.592 11.1078C5.60565 11.1686 5.6072 11.2314 5.59657 11.2928C5.58594 11.3541 5.56333 11.4127 5.53004 11.4653C5.49674 11.5179 5.45341 11.5635 5.40252 11.5993C5.35162 11.6352 5.29417 11.6607 5.23343 11.6743C5.17269 11.688 5.10985 11.6895 5.04851 11.6789C2.40055 11.2204 0 8.98817 0 5.69891C0 4.30079 0.63584 3.20194 1.37811 2.36689C1.91025 1.76834 2.5188 1.28169 3.00819 0.909642H1.52001C1.39939 0.909642 1.2837 0.861724 1.1984 0.776428C1.11311 0.691133 1.06519 0.575447 1.06519 0.454821C1.06519 0.334195 1.11311 0.21851 1.1984 0.133214C1.2837 0.0479186 1.39939 0 1.52001 0H4.24894C4.36956 0 4.48525 0.0479186 4.57055 0.133214C4.65584 0.21851 4.70376 0.334195 4.70376 0.454821V3.18375C4.70376 3.30437 4.65584 3.42006 4.57055 3.50535C4.48525 3.59065 4.36956 3.63857 4.24894 3.63857C4.12831 3.63857 4.01263 3.59065 3.92733 3.50535C3.84204 3.42006 3.79412 3.30437 3.79412 3.18375V1.50455L3.79321 1.50637C3.27289 1.89751 2.63796 2.3769 2.08763 2.99636C1.43723 3.72771 0.947847 4.6128 0.947847 5.69891ZM11.0522 6.06731C11.0522 3.32747 9.08733 1.4527 6.86143 1.03426C6.79939 1.02374 6.74007 1.00096 6.68693 0.967265C6.63378 0.933569 6.58788 0.889627 6.5519 0.838003C6.51592 0.786379 6.49058 0.728107 6.47736 0.666586C6.46414 0.605065 6.46331 0.541527 6.4749 0.479679C6.4865 0.417831 6.5103 0.358912 6.54491 0.306359C6.57952 0.253806 6.62424 0.208671 6.67648 0.173588C6.72872 0.138505 6.78742 0.114176 6.84916 0.102021C6.9109 0.0898651 6.97444 0.0901265 7.03608 0.10279C9.65039 0.593996 12 2.81352 12 6.06731C12 7.46543 11.3642 8.56337 10.6219 9.39933C10.0898 9.99788 9.4812 10.4845 8.99181 10.8566H10.48C10.6006 10.8566 10.7163 10.9045 10.8016 10.9898C10.8869 11.0751 10.9348 11.1908 10.9348 11.3114C10.9348 11.432 10.8869 11.5477 10.8016 11.633C10.7163 11.7183 10.6006 11.7662 10.48 11.7662H7.75106C7.63043 11.7662 7.51475 11.7183 7.42945 11.633C7.34416 11.5477 7.29624 11.432 7.29624 11.3114V8.58247C7.29624 8.46185 7.34416 8.34616 7.42945 8.26087C7.51475 8.17557 7.63043 8.12765 7.75106 8.12765C7.87169 8.12765 7.98737 8.17557 8.07267 8.26087C8.15796 8.34616 8.20588 8.46185 8.20588 8.58247V10.2608H8.2077C8.72711 9.8678 9.36295 9.38933 9.91237 8.76895C10.5628 8.03851 11.0522 7.15434 11.0522 6.06731Z" fill="url(#paint0_linear_128_72)"/>
<defs>
<linearGradient id="paint0_linear_128_72" x1="0" y1="0" x2="11.5455" y2="15.7438" gradientUnits="userSpaceOnUse">
<stop stop-color="#FF00FF"/>
<stop offset="1" stop-color="#0000FF"/>
</linearGradient>
</defs>
</svg>
