<svg width="12" height="11" viewBox="0 0 12 11" fill="none" xmlns="http://www.w3.org/2000/svg">
<path d="M10.1053 0C10.4403 0 10.7616 0.133082 10.9985 0.36997C11.2353 0.606858 11.3684 0.928148 11.3684 1.26316C11.3684 1.61197 11.0857 1.89474 10.7368 1.89474H7.57895C6.74142 1.89474 5.9382 2.22744 5.34598 2.81966C4.75376 3.41188 4.42105 4.21511 4.42105 5.05263C4.42105 5.89016 4.75376 6.69338 5.34598 7.2856C5.9382 7.87782 6.74142 8.21053 7.57895 8.21053H10.7368C11.0857 8.21053 11.3684 8.49329 11.3684 8.84211C11.3684 9.17712 11.2353 9.49841 10.9985 9.73529C10.7616 9.97218 10.4403 10.1053 10.1053 10.1053H1.26316C0.928148 10.1053 0.606858 9.97218 0.36997 9.73529C0.133082 9.49841 0 9.17712 0 8.84211V1.26316C0 0.928148 0.133082 0.606858 0.36997 0.36997C0.606858 0.133082 0.928148 0 1.26316 0H10.1053ZM10.7368 3.15789C11.0719 3.15789 11.3931 3.29098 11.63 3.52787C11.8669 3.76475 12 4.08604 12 4.42105V5.68421C12 6.01922 11.8669 6.34051 11.63 6.5774C11.3931 6.81429 11.0719 6.94737 10.7368 6.94737H7.57895C7.07643 6.94737 6.5945 6.74775 6.23917 6.39241C5.88383 6.03708 5.68421 5.55515 5.68421 5.05263C5.68421 4.55012 5.88383 4.06818 6.23917 3.71285C6.5945 3.35752 7.07643 3.15789 7.57895 3.15789H10.7368ZM7.57895 4.42105C7.41144 4.42105 7.2508 4.48759 7.13235 4.60604C7.01391 4.72448 6.94737 4.88513 6.94737 5.05263C6.94737 5.22014 7.01391 5.38078 7.13235 5.49923C7.2508 5.61767 7.41144 5.68421 7.57895 5.68421C7.74645 5.68421 7.9071 5.61767 8.02554 5.49923C8.14398 5.38078 8.21053 5.22014 8.21053 5.05263C8.21053 4.88513 8.14398 4.72448 8.02554 4.60604C7.9071 4.48759 7.74645 4.42105 7.57895 4.42105Z" fill="url(#paint0_linear_128_81)"/>
<defs>
<linearGradient id="paint0_linear_128_81" x1="12.4834" y1="7.38754" x2="3.44265" y2="-1.01234" gradientUnits="userSpaceOnUse">
<stop stop-color="#0000FF"/>
<stop offset="1" stop-color="#FF00FF"/>
</linearGradient>
</defs>
</svg>
