<svg width="15" height="15" viewBox="0 0 15 15" fill="none" xmlns="http://www.w3.org/2000/svg">
<path d="M12.7679 6.35088V12.529C12.7679 12.9192 12.6129 13.2933 12.337 13.5692C12.0612 13.845 11.687 14 11.2969 14H2.47101C2.27783 14 2.08655 13.962 1.90807 13.888C1.7296 13.8141 1.56744 13.7058 1.43084 13.5692C1.29424 13.4326 1.18589 13.2704 1.11197 13.092C1.03804 12.9135 0.999995 12.7222 1 12.529V3.7031C0.999986 3.50992 1.03803 3.31863 1.11195 3.14016C1.18587 2.96168 1.29422 2.79951 1.43082 2.66291C1.56742 2.52631 1.72958 2.41796 1.90806 2.34404C2.08654 2.27012 2.27783 2.23208 2.47101 2.2321H8.64912M14 4.42287V1M14 1H10.75M14 1L8.64912 6.35088" stroke="#F8F8F8" stroke-linecap="round" stroke-linejoin="round"/>
</svg>
